<?xml version="1.0" standalone="no"?>
<!DOCTYPE svg PUBLIC "-//W3C//DTD SVG 20010904//EN"
 "http://www.w3.org/TR/2001/REC-SVG-20010904/DTD/svg10.dtd">
<svg version="1.0" xmlns="http://www.w3.org/2000/svg"
 width="300.000000pt" height="300.000000pt" viewBox="0 0 300.000000 300.000000"
 preserveAspectRatio="xMidYMid meet">
<metadata>
Created by potrace 1.14, written by Peter Selinger 2001-2017
</metadata>
<g transform="translate(0.000000,300.000000) scale(0.100000,-0.100000)"
fill="#000000" stroke="none">
<path d="M320 1555 l0 -1145 40 0 c38 0 40 -2 40 -30 l0 -30 345 0 345 0 0
640 0 640 95 0 95 0 0 -290 0 -290 40 0 c38 0 40 -2 40 -30 l0 -30 185 0 185
0 0 320 0 320 95 0 95 0 0 -610 0 -610 40 0 c38 0 40 -2 40 -30 l0 -30 345 0
345 0 0 1145 0 1145 -40 0 c-38 0 -40 2 -40 30 l0 30 -345 0 -345 0 0 -160 0
-160 -160 0 -160 0 0 -160 0 -160 -95 0 -95 0 0 130 0 130 -40 0 c-38 0 -40 2
-40 30 l0 30 -120 0 -120 0 0 130 0 130 -40 0 c-38 0 -40 2 -40 30 l0 30 -345
0 -345 0 0 -1145z"/>
</g>
</svg>
